<?xml version="1.0" standalone="no"?><!DOCTYPE svg PUBLIC "-//W3C//DTD SVG 1.1//EN" "http://www.w3.org/Graphics/SVG/1.1/DTD/svg11.dtd"><svg t="1600069859326" class="icon" viewBox="0 0 1024 1024" version="1.1" xmlns="http://www.w3.org/2000/svg" p-id="2172" xmlns:xlink="http://www.w3.org/1999/xlink" width="200" height="200"><defs><style type="text/css"></style></defs><path d="M634.180074 948.890976c-0.511642 0-1.023284 0-1.534926 0-9.209553-0.511642-17.702808-5.116419-23.22854-12.484061L502.688118 790.793644l-60.373738 51.778155c-12.893375 11.051464-32.233437 9.516538-43.284901-3.376836-11.051464-12.893375-9.516538-32.233437 3.376836-43.284901l85.546517-73.267113c6.446687-5.525732 15.04227-8.18627 23.535525-7.162986 8.493255 1.023284 16.167882 5.423404 21.284301 12.381733l104.067952 141.929449 273.626062-302.482662c11.358449-12.58639 30.800839-13.507345 43.387229-2.148896 12.58639 11.358449 13.507345 30.800839 2.148896 43.387229L656.9993 938.760468C651.166583 945.207155 642.877985 948.890976 634.180074 948.890976zM943.92805 739.322474c-0.511642 0-1.023284 0-1.432597 0-16.884181-0.818627-29.982212-15.144599-29.163585-32.131108l4.40012-92.811832L804.659139 614.379534c-16.986509 0-30.698511-13.712002-30.698511-30.698511s13.712002-30.698511 30.698511-30.698511l145.101629 0c8.390926 0 16.372539 3.479165 22.205256 9.516538 5.832717 6.037374 8.80024 14.223643 8.493255 22.61457L974.524233 710.158889C973.705606 726.531428 960.198261 739.322474 943.92805 739.322474zM422.360348 518.804837c-59.248126 0-115.017088-23.126212-156.869391-64.978515-41.852303-41.852303-64.978515-97.621265-64.978515-156.869391s23.126212-115.017088 64.978515-156.869391c41.852303-41.852303 97.621265-64.978515 156.869391-64.978515 59.248126 0 115.017088 23.126212 156.869391 64.978515 41.852303 41.852303 64.978515 97.621265 64.978515 156.869391S621.082043 411.974018 579.229739 453.826322C537.275107 495.678625 481.608474 518.804837 422.360348 518.804837zM422.360348 136.506046c-88.51404 0-160.450884 71.936844-160.450884 160.450884S333.846308 457.407815 422.360348 457.407815s160.450884-71.936844 160.450884-160.450884S510.77206 136.506046 422.360348 136.506046zM135.636255 901.103627c-16.986509 0-30.698511-13.712002-30.698511-30.698511 0-84.830219 33.052064-164.544019 93.016488-224.406116 59.964425-59.964425 139.678225-93.016488 224.406116-93.016488 43.591886 0 85.853503 8.697911 125.659239 25.889078 38.373139 16.577196 72.653143 40.215049 101.919057 70.29959 11.870091 12.177076 11.563106 31.619466-0.61397 43.387229-12.177076 11.870091-31.619466 11.563106-43.387229-0.61397-48.605976-50.038573-113.789148-77.564905-183.577096-77.564905-68.355351 0-132.719896 26.605376-181.018887 75.006695-48.401319 48.401319-75.006695 112.663536-75.006695 181.018887C166.334766 887.391626 152.520436 901.103627 135.636255 901.103627z" p-id="2173"></path></svg>