<?xml version="1.0" standalone="no"?><!DOCTYPE svg PUBLIC "-//W3C//DTD SVG 1.1//EN" "http://www.w3.org/Graphics/SVG/1.1/DTD/svg11.dtd"><svg t="1598578793089" class="icon" viewBox="0 0 1024 1024" version="1.1" xmlns="http://www.w3.org/2000/svg" p-id="2124" xmlns:xlink="http://www.w3.org/1999/xlink" width="200" height="200"><defs><style type="text/css"></style></defs><path d="M124.416 7.168C70.144 24.576 28.672 62.464 10.24 111.104 0.512 137.728 0 150.528 0 512c0 363.008 0.512 374.272 10.24 401.408 14.848 38.912 45.056 71.168 86.016 91.136l34.304 16.896h762.88l34.304-16.896c36.864-17.92 63.488-46.08 82.432-86.528l11.264-24.576V130.56l-11.264-24.576c-18.944-40.448-45.568-68.608-82.432-86.528L893.44 2.56 519.68 1.536c-299.008-1.024-377.856 0.512-395.264 5.632z m590.848 254.464c49.152 50.688 54.784 59.904 47.616 78.848-5.12 13.312-79.872 94.208-82.944 89.6-0.512-1.536-28.672-30.72-61.952-64.512l-59.904-61.44 43.52-44.544c30.72-31.232 47.616-44.544 56.32-44.544 8.704 0 25.6 13.824 57.344 46.592z m-60.928 193.024c-1.024 3.584-71.68 84.48-157.696 179.712l-156.16 174.08h-62.464l-62.976 0.512v-128.512l121.856-134.144c66.56-73.728 138.24-153.6 159.232-176.64l38.4-42.496 60.416 60.416c33.28 33.28 59.904 63.488 59.392 67.072z m153.6 327.168l1.536 27.136h-197.12c-109.056 0-197.632-1.536-197.632-3.584 0-2.048 10.752-14.848 24.064-28.16l24.576-24.576 171.52 1.024 171.52 1.536 1.536 26.624z" p-id="2125"></path></svg>