<?xml version="1.0" standalone="no"?><!DOCTYPE svg PUBLIC "-//W3C//DTD SVG 1.1//EN" "http://www.w3.org/Graphics/SVG/1.1/DTD/svg11.dtd"><svg t="1598598531610" class="icon" viewBox="0 0 1024 1024" version="1.1" xmlns="http://www.w3.org/2000/svg" p-id="4477" xmlns:xlink="http://www.w3.org/1999/xlink" width="200" height="200"><defs><style type="text/css"></style></defs><path d="M832.2 264.6H192.3c-35.2 0-64-28.8-64-64s28.8-64 64-64h639.8c35.2 0 64 28.8 64 64 0.1 35.2-28.7 64-63.9 64z m0 313.3H196.1c-35.2 0-64-28.8-64-64s28.8-64 64-64h636.1c35.2 0 64 28.8 64 64s-28.8 64-64 64z m0 319H192.3c-35.2 0-64-28.8-64-64s28.8-64 64-64h639.8c35.2 0 64 28.8 64 64 0.1 35.2-28.7 64-63.9 64z" p-id="4478"></path></svg>