<svg t="1598599579778" class="icon" viewBox="0 0 1024 1024" version="1.1" xmlns="http://www.w3.org/2000/svg" p-id="8278" width="200" height="200"><path d="M1023.821018 1024H0.178982V263.745606h1023.642036zM79.177994 945.000988h865.644012V342.744618H79.177994z" p-id="8279"></path><path d="M774.28289 339.893247H251.346464V88.873888a88.972637 88.972637 0 0 1 88.873888-88.873888h345.18865a88.972637 88.972637 0 0 1 88.873888 88.873888z m-443.937414-78.999011h364.938403V88.873888a9.874876 9.874876 0 0 0-9.874877-9.874876H340.220352a9.874876 9.874876 0 0 0-9.874876 9.874876zM39.678488 617.73524h359.902215v78.999011H39.678488zM623.308373 617.73524h361.013139v78.999011H623.308373z" p-id="8280"></path><path d="M626.542395 776.609658h-230.454929V528.096049h230.454929z m-151.455918-78.999012h72.456906v-90.515586h-72.456906z" p-id="8281"></path></svg>